<svg width="64" height="68" viewBox="0 0 64 68" fill="none" xmlns="http://www.w3.org/2000/svg">
<circle cx="32" cy="33.8286" r="31.5" stroke="white"/>
<path fill-rule="evenodd" clip-rule="evenodd" d="M50.2091 23.7069C51.4657 23.6812 53.2884 24.3017 53.4852 25.8157C53.584 26.5335 53.0908 27.3026 51.9826 28.0722C51.2696 28.5337 50.5619 28.9783 49.8634 29.4171C46.5814 31.479 43.5045 33.412 41.0466 36.3571C41.4415 37.1997 44.6675 40.9454 48.042 41.7641C49.4712 42.0617 52.7956 42.8547 50.6777 44.2935C45.4335 47.8451 40.0604 42.4117 38.6194 40.9545C38.5107 40.8446 38.4243 40.7573 38.3621 40.6982C38.1236 41.0016 37.7885 41.6089 37.4587 42.2067C37.1424 42.7799 36.831 43.3443 36.6141 43.6238C35.9491 44.2696 35.0623 44.6168 34.0034 44.6407C33.3134 44.6407 32.7463 44.4182 32.279 43.9467C31.8108 43.4748 31.5398 42.8799 31.4414 42.2103C31.4168 41.9622 31.4168 41.7384 31.466 41.4669C31.3285 41.5674 31.1989 41.663 31.0769 41.7531C30.7178 42.0182 30.4243 42.2349 30.1853 42.3841C28.1653 43.6725 23.092 45.2855 20.5792 42.3585C20.5792 46.128 17.0571 67.6571 13.1165 67.6571C11.6877 67.6571 11.0478 66.5156 10.8756 65.2511C10.2523 60.6138 16.0208 45.4508 18.5036 38.9246C18.7693 38.2262 18.9974 37.6268 19.1759 37.1497C18.5545 37.621 17.827 38.6557 17.0169 39.8078C15.4836 41.9885 13.6543 44.5902 11.6877 44.5902C10.9991 44.5902 10.6042 44.1439 10.5058 43.3014C10.4237 42.7704 12.4629 40.5241 15.6031 37.0649C17.1634 35.3462 18.9954 33.3281 20.9741 31.0722C21.2985 30.1384 21.7235 28.7048 22.242 26.9557C25.0692 17.4184 30.6768 -1.49828 37.9194 0.0946141C40.6777 0.690849 41.9088 4.78239 38.2638 11.7528C35.724 16.5507 32.8365 20.7118 30.0374 24.7454C27.5705 28.3004 25.1722 31.7565 23.1412 35.4623C22.2548 37.0501 21.8609 39.5057 24.7425 39.5057C26.6795 39.5057 29.4422 38.1469 31.731 37.0213C32.2935 36.7446 32.8274 36.482 33.3134 36.2571L33.3872 36.059C32.3282 33.9502 30.7765 30.6759 31.8846 28.5928C33.3626 25.8891 36.0967 26.3349 37.7222 29.6348C38.0911 30.404 38.4614 31.2465 38.7812 32.2138C40.8253 29.3119 46.3176 23.7821 50.2091 23.7069ZM34.8195 7.88204C36.7653 7.88204 25.7308 25.8392 25.1889 26.5589C25.78 24.5 33.2186 7.88204 34.8195 7.88204Z" fill="white"/>
</svg>
