<svg width="488" height="214" viewBox="0 0 488 214" fill="none" xmlns="http://www.w3.org/2000/svg">
<path d="M170.713 78.2254C169.887 78.3789 169.474 78.8833 169.322 79.8922C169.191 80.7914 168.8 82.6776 168.212 85.0901C168.06 85.7481 167.799 86.8447 167.669 87.5026C167.256 89.4327 166.821 91.3408 166.473 92.9418C166.277 93.7533 166.038 94.8938 165.929 95.464C165.82 96.0342 165.668 96.7361 165.581 96.9992C165.494 97.2624 165.298 98.1178 165.124 98.9073C164.711 100.859 164.276 102.899 163.885 104.61C163.711 105.399 163.406 106.781 163.211 107.68C162.623 110.378 162.297 111.847 161.797 114.04C161.536 115.181 161.232 116.585 161.145 117.155C161.036 117.747 160.884 118.295 160.818 118.427C160.753 118.559 160.601 119.107 160.492 119.699C160.405 120.269 160.101 121.673 159.84 122.813C159.579 123.954 159.296 125.379 159.187 125.972C159.079 126.542 158.905 127.331 158.774 127.726C158.665 128.099 158.491 128.823 158.426 129.327L158.274 130.27H164.994C168.669 130.27 172.04 130.204 172.453 130.139C173.236 130.007 173.236 130.007 173.628 128.231C173.823 127.244 174.084 126.125 174.193 125.774C174.302 125.401 174.454 124.721 174.519 124.239C174.606 123.756 174.802 122.813 174.954 122.155C175.106 121.497 175.411 120.16 175.607 119.195C175.802 118.23 176.085 117.045 176.194 116.563C176.324 116.08 176.563 115.049 176.716 114.26C177.02 112.703 177.455 110.619 178.021 108.228C178.216 107.373 178.499 106.057 178.673 105.268C178.934 103.908 179.195 102.767 179.978 99.3898C180.152 98.5784 180.435 97.2186 180.587 96.3632C180.739 95.5298 180.913 94.7183 181 94.5867C181.065 94.4771 181.239 93.841 181.348 93.1831C181.478 92.5251 181.718 91.3627 181.892 90.5731C182.044 89.7836 182.305 88.5992 182.457 87.9413C182.588 87.2833 182.848 86.1867 183.001 85.5287C183.153 84.8708 183.457 83.4891 183.675 82.4583C183.871 81.4274 184.175 80.1115 184.327 79.5193C184.501 78.9272 184.632 78.3569 184.632 78.2473C184.632 78.0718 171.714 78.0499 170.713 78.2254Z" fill="#FF7900"/>
<path d="M187.35 78.8833C187.263 79.3438 187.133 79.9141 187.024 80.1553C186.915 80.3966 186.741 81.1423 186.611 81.8002C186.48 82.4582 186.241 83.6425 186.067 84.4321C185.763 85.8138 185.067 89.2352 185.067 89.3668C185.067 89.3888 189.177 89.4546 194.201 89.5204C199.224 89.5642 203.378 89.6739 203.443 89.7397C203.53 89.8055 203.443 90.5073 203.247 91.2749C202.726 93.512 202.443 94.7621 202.225 96.0561C202.095 96.7141 201.921 97.4598 201.812 97.701C201.703 97.9423 201.551 98.5783 201.486 99.1266C201.399 99.6749 201.247 100.421 201.138 100.793C201.008 101.188 200.834 101.978 200.725 102.548C200.616 103.14 200.377 104.303 200.181 105.158C199.985 105.991 199.703 107.285 199.529 108.009C199.376 108.733 199.029 110.268 198.768 111.409C198.507 112.549 198.202 113.931 198.115 114.479C198.006 115.027 197.811 115.861 197.637 116.343L197.354 117.221L190.069 117.352C183.544 117.462 182.674 117.528 181.696 117.901C179.847 118.646 179.151 119.918 178.216 124.239C177.999 125.204 177.738 126.235 177.629 126.542C177.542 126.849 177.368 127.595 177.259 128.187C177.151 128.801 176.977 129.525 176.89 129.81L176.737 130.314L191.286 130.204C206.901 130.073 207.532 130.029 208.663 128.954C209.337 128.34 209.989 127.068 210.185 126.037C210.25 125.643 210.402 125.138 210.511 124.897C210.62 124.656 210.816 123.954 210.924 123.362C211.033 122.748 211.272 121.673 211.468 120.949C212.033 118.602 212.49 116.585 212.795 115.247C212.947 114.523 213.23 113.295 213.404 112.505C214.404 108.163 214.708 106.803 214.882 105.728C215.013 105.07 215.165 104.434 215.23 104.325C215.296 104.215 215.491 103.513 215.644 102.767C215.796 102.022 216.057 100.793 216.231 100.004C216.405 99.2143 216.709 97.8326 216.927 96.9334C217.122 96.0342 217.427 94.6525 217.601 93.8629C217.775 93.0734 218.057 91.7136 218.231 90.8363C218.405 89.959 218.579 89.1694 218.645 89.0598C218.71 88.972 218.862 88.3579 218.971 87.7C219.188 86.5376 219.667 84.1908 220.08 82.2389C220.537 80.0457 220.254 79.1684 218.819 78.4227C218.21 78.1157 216.535 78.0718 202.813 78.0718H187.481L187.35 78.8833Z" fill="#FF7900"/>
<path d="M234.107 78.4446C234.02 78.6639 233.824 79.4754 233.672 80.265C233.346 81.8441 232.911 83.7961 232.367 85.9673C231.867 87.9851 231.628 89.1036 231.606 89.4107C231.606 89.63 233.215 89.6958 238.978 89.6958H246.373L246.699 88.5334C246.873 87.9193 247.112 86.8885 247.242 86.2963C247.373 85.6822 247.634 84.4979 247.808 83.6645C248.004 82.8091 248.308 81.4055 248.482 80.5282C248.634 79.6509 248.83 78.8394 248.895 78.7297C249.156 78.2911 247.83 78.2034 241.262 78.1156C234.672 78.0498 234.259 78.0718 234.107 78.4446Z" fill="#FF7900"/>
<path d="M441.36 78.2692C440.055 78.4447 439.816 78.5763 439.664 79.2123C439.076 81.6687 438.359 84.7611 437.88 86.9543C437.706 87.6781 437.445 88.9063 437.271 89.6959C436.488 93.205 436.184 94.499 435.901 95.8368C435.749 96.6264 435.466 97.8985 435.292 98.688C435.118 99.4776 434.814 100.903 434.64 101.868C434.444 102.811 434.205 103.952 434.096 104.39C433.987 104.807 433.726 105.948 433.531 106.913C433.335 107.878 433.074 109.062 432.944 109.544C432.813 110.027 432.574 111.102 432.422 111.957C432.269 112.79 432.008 114.172 431.813 115.027C430.464 121.432 430.356 122.199 430.508 123.8C430.812 126.915 432.704 129.086 435.814 129.854C436.467 130.007 443.252 130.117 455.735 130.204L474.699 130.336L474.96 129.261C475.09 128.669 475.351 127.551 475.525 126.761C475.677 125.972 475.96 124.7 476.134 123.91C476.286 123.12 476.547 121.936 476.678 121.278C476.83 120.62 477.091 119.458 477.287 118.712C477.461 117.966 477.569 117.221 477.504 117.045C477.395 116.76 475.351 116.694 462.303 116.628C454.017 116.585 447.058 116.453 446.84 116.365C446.427 116.168 446.449 115.576 446.992 113.492C447.166 112.878 447.449 111.606 447.667 110.641C448.341 107.417 448.602 106.255 448.863 105.158C449.015 104.544 449.254 103.425 449.406 102.636C449.733 101.035 450.211 98.8854 450.733 96.6045C450.929 95.7491 451.211 94.4332 451.364 93.6436C451.538 92.8541 451.82 91.5162 451.994 90.6828C452.19 89.8274 452.494 88.4457 452.668 87.6123C452.842 86.757 453.125 85.441 453.299 84.6515C454.147 80.7914 454.365 79.6729 454.387 79.0588C454.408 78.4447 454.343 78.4008 453.43 78.2473C452.234 78.0718 442.86 78.0718 441.36 78.2692Z" fill="#FF7900"/>
<path d="M230.78 93.4682C230.649 93.6217 230.454 94.2358 230.323 94.8499C230.062 96.1878 229.366 99.346 228.888 101.43C228.692 102.263 228.453 103.316 228.344 103.732C228.257 104.149 227.953 105.377 227.713 106.474C227.452 107.549 227.148 108.886 227.039 109.435C226.93 109.983 226.735 110.773 226.604 111.189C226.496 111.606 226.126 113.141 225.821 114.589C225.495 116.036 225.104 117.813 224.93 118.537C224.625 119.831 224.234 121.563 223.668 124.239C223.516 124.963 223.212 126.235 223.038 127.09C222.842 127.924 222.624 128.889 222.559 129.218C222.451 129.722 222.516 129.854 222.994 130.051C223.364 130.183 226.3 130.27 230.41 130.27H237.217L237.326 129.678C237.391 129.327 237.587 128.428 237.782 127.638C237.956 126.849 238.261 125.467 238.457 124.568C238.913 122.528 239.326 120.62 239.761 118.756C240.175 117.001 240.675 114.808 241.066 113.054C241.219 112.33 241.523 111.036 241.719 110.202C242.241 107.987 242.632 106.233 243.002 104.61C243.306 103.118 243.676 101.605 244.046 100.114C244.35 98.9731 244.829 96.7361 245.177 95.0034C245.459 93.6217 245.459 93.5998 244.937 93.4024C244.089 93.0734 231.062 93.1392 230.78 93.4682Z" fill="#FF7900"/>
<path d="M266.185 93.4682C263.836 93.6217 263.009 93.7752 262.096 94.1919C259.921 95.2008 258.769 96.8457 257.899 100.114C257.007 103.601 256.115 107.154 255.811 108.557C255.659 109.347 255.376 110.575 255.202 111.299C255.05 112.023 254.745 113.361 254.55 114.26C254.006 116.672 253.593 118.58 253.223 120.181C253.027 120.971 252.766 122.199 252.614 122.923C252.201 124.765 251.853 126.235 251.483 127.551C251.07 129.02 251.092 129.963 251.527 130.139C251.962 130.314 264.097 130.314 265.119 130.139C265.88 130.007 265.924 129.941 266.25 128.647C266.75 126.673 267.185 124.787 268.055 120.883C268.207 120.138 268.49 118.887 268.685 118.098C269.36 115.137 269.642 113.909 269.882 112.834C270.012 112.22 270.208 111.562 270.317 111.365C270.447 111.145 270.534 110.86 270.534 110.707C270.534 109.851 271.36 107.812 271.948 107.242C273.013 106.189 275.34 105.969 286.279 105.86C293.825 105.772 295.631 105.706 295.783 105.465C295.891 105.29 296.022 104.719 296.087 104.171C296.218 103.228 296.457 102.022 297.175 98.8635C297.675 96.6264 297.61 94.8938 297.022 94.1919C296.566 93.6656 296.326 93.5998 294.021 93.4243C290.911 93.1611 270.164 93.205 266.185 93.4682Z" fill="#FF7900"/>
<path d="M316.638 93.3366C316.464 93.3586 315.768 93.4682 315.094 93.534C314.116 93.6437 313.681 93.8191 312.985 94.4113C311.723 95.5079 311.115 96.9774 310.179 101.101C310.005 101.89 309.723 103.162 309.527 103.952C309.353 104.741 309.07 105.991 308.896 106.737C308.722 107.505 308.44 108.733 308.266 109.479C307.983 110.773 307.657 112.264 306.961 115.466C306.809 116.19 306.504 117.462 306.33 118.317C305.417 122.353 305.047 124.173 304.83 126.037L304.59 128.077L305.265 128.998L305.939 129.941L327.969 130.007C343.279 130.029 350.369 129.985 351.173 129.81C352.913 129.459 354.109 128.055 354.718 125.621C355.023 124.392 355.566 121.914 355.631 121.497C355.697 121.081 350.195 120.927 332.623 120.839C325.925 120.818 320.161 120.73 319.792 120.642C319.4 120.554 319.139 120.357 319.161 120.182C319.183 119.874 319.357 119.041 320.466 114.041C320.64 113.251 320.879 112.111 321.01 111.518C321.118 110.904 321.292 110.268 321.358 110.093C321.532 109.698 322.01 107.571 322.336 105.816C322.467 105.092 322.662 104.368 322.793 104.215C322.945 104.018 325.664 103.952 335.058 103.952H347.128L346.998 104.434C346.911 104.719 346.693 105.531 346.519 106.255C346.345 106.978 346.15 107.79 346.063 108.053L345.954 108.558H339.212C332.101 108.558 330.187 108.755 328.708 109.654C328.099 110.027 327.077 111.211 327.077 111.54C327.077 111.606 326.947 111.979 326.794 112.352C326.403 113.251 325.859 115.049 325.664 115.949C325.533 116.629 325.555 116.65 326.468 116.782C328.165 117.023 352.261 116.497 353.935 116.168C356.762 115.62 356.784 115.576 358.611 108.119C359.089 106.123 359.568 104.105 359.698 103.623C359.807 103.14 360.003 102.241 360.155 101.649C360.546 99.9382 361.003 97.3941 361.134 96.0343C361.242 94.9815 361.199 94.7403 360.764 94.2139C360.285 93.6875 360.024 93.5998 358.176 93.4244C356.327 93.2489 317.443 93.1612 316.638 93.3366Z" fill="#FF7900"/>
<path d="M378.075 93.4462C377.009 93.5559 375.813 93.7971 375.422 93.9726C374.247 94.4989 373.551 96.0342 372.594 100.223C372.116 102.307 371.964 102.965 371.464 105.158C370.724 108.25 370.42 109.632 370.028 111.409C369.833 112.308 369.528 113.69 369.354 114.479C369.18 115.269 368.941 116.453 368.81 117.111C368.68 117.769 368.506 118.515 368.397 118.756C368.289 118.997 368.093 119.831 367.962 120.62C367.832 121.41 367.593 122.791 367.397 123.691C366.831 126.454 366.766 128.143 367.201 128.823C368.006 130.051 368.506 130.161 373.856 130.226L378.749 130.314L378.988 129.766C379.119 129.481 379.314 128.757 379.401 128.165C379.467 127.573 379.641 126.871 379.728 126.586C379.836 126.301 380.076 125.357 380.271 124.502C380.663 122.726 380.772 122.177 381.424 119.414C381.685 118.317 382.033 116.848 382.207 116.124C382.359 115.4 382.664 114.106 382.859 113.273C383.055 112.417 383.359 111.145 383.533 110.422C384.273 107.066 384.425 106.408 384.577 106.189C384.686 105.991 389.318 105.926 402.606 105.904C412.436 105.882 420.721 105.816 421.026 105.728C421.504 105.597 421.591 105.399 421.744 104.281C421.831 103.557 422.005 102.767 422.113 102.526C422.222 102.285 422.418 101.451 422.548 100.662C422.7 99.8723 422.94 98.6003 423.114 97.8107C423.94 93.7752 423.94 93.8629 423.657 93.5778C423.331 93.2488 381.272 93.1392 378.075 93.4462Z" fill="#FF7900"/>
<path d="M456.191 93.3585C455.474 93.4682 455.3 93.841 454.713 96.6045C454.473 97.6792 454.125 99.2144 453.951 100.004C453.777 100.794 453.538 101.868 453.429 102.417C453.342 102.965 453.082 103.996 452.908 104.719C452.364 106.759 452.429 107.198 453.277 107.351C454.104 107.505 479.222 107.395 479.396 107.242C479.483 107.132 478.743 104.632 477.982 102.526C477.721 101.737 477.199 100.004 476.895 98.8416C476.786 98.381 476.612 97.8546 476.503 97.6353C476.395 97.4379 476.09 96.5168 475.829 95.6175C475.568 94.7183 475.286 93.8191 475.199 93.6437C475.046 93.3585 473.763 93.3147 465.912 93.2927C460.911 93.2708 456.518 93.3147 456.191 93.3585Z" fill="#FF7900"/>
<path d="M388.535 117.55L385.512 117.659L385.099 119.304C384.903 120.203 384.708 121.125 384.708 121.344C384.708 121.541 384.621 121.892 384.49 122.112C384.382 122.309 384.186 123.033 384.077 123.691C383.751 125.467 383.229 127.858 382.968 128.735C382.859 129.152 382.75 129.678 382.75 129.897C382.75 130.27 383.403 130.292 397.821 130.226L412.871 130.161L414.067 129.568C414.937 129.13 415.437 128.691 415.872 128.011C416.198 127.485 416.459 126.937 416.459 126.783C416.459 126.652 416.546 126.366 416.676 126.147C416.916 125.708 417.525 123.384 417.786 121.892C417.873 121.3 418.003 120.752 418.09 120.642C418.155 120.532 418.307 119.962 418.416 119.37C418.525 118.8 418.677 118.098 418.764 117.813L418.895 117.33L405.237 117.374C397.713 117.396 390.188 117.484 388.535 117.55Z" fill="#FF7900"/>
<g style="mix-blend-mode:hard-light" filter="url(#filter0_f_1879_499)">
<ellipse cx="107.583" cy="107.105" rx="41" ry="40.5" fill="#FFB470" fill-opacity="0.38"/>
</g>
<g style="mix-blend-mode:hard-light" filter="url(#filter1_f_1879_499)">
<path d="M86.6975 128.466L124.171 128.743C128.144 128.96 131.201 127.91 133.289 126.112C135.378 124.314 136.429 121.826 136.48 119.319C136.584 114.266 132.651 109.223 125.308 109.223C124.561 109.223 123.801 109.227 123.027 109.232C121.437 109.241 119.788 109.251 118.074 109.223L118.06 110.091L118.074 109.223C116.116 109.191 115.004 108.974 114.371 108.576C113.853 108.25 113.538 107.719 113.506 106.523C113.472 105.283 113.752 103.54 114.257 101.051C114.441 100.146 114.655 99.1425 114.889 98.0394C115.288 96.1661 115.747 94.0054 116.226 91.5527L116.234 91.5138L116.238 91.4745C116.666 87.2857 115.575 84.0312 113.567 81.8028C111.569 79.5851 108.739 78.4686 105.843 78.4037C100.049 78.2738 93.8704 82.3482 93.0312 90.424C91.5974 97.6967 90.1863 105.013 88.7803 112.302C87.8036 117.366 86.8294 122.417 85.8517 127.431L85.6515 128.458L86.6975 128.466ZM88.7606 112.315L87.9093 112.151L88.7606 112.315C90.2059 104.821 91.6554 97.3077 92.999 90.4915L93.0065 90.4532L93.0106 90.4144C93.6634 84.2074 97.4087 80.4255 101.68 79.0027C103.269 78.4736 104.936 78.274 106.551 78.4038C108.184 78.5352 109.756 79.0004 111.139 79.7924C114.485 81.7087 116.867 85.535 116.262 91.4607L116.255 91.5232L116.251 91.545C116.251 91.5453 116.251 91.5456 116.251 91.546C115.812 93.7902 115.339 96.0174 114.924 97.9697L114.914 98.0147L114.914 98.0147L114.882 98.1633C114.117 101.762 113.55 104.428 113.522 106.166L113.522 106.166C113.514 106.651 113.576 107.131 113.781 107.566C113.994 108.019 114.332 108.361 114.766 108.603C115.562 109.047 116.705 109.164 118.088 109.186C119.853 109.215 121.493 109.205 123.053 109.196C123.053 109.196 123.053 109.196 123.053 109.196L123.123 109.196C123.483 109.194 123.879 109.192 125.322 109.192H125.713C130.827 109.316 134.113 111.881 135.594 115.037C136.235 116.401 136.54 117.883 136.503 119.346V119.346C136.465 120.829 136.082 122.297 135.35 123.619L136.109 124.04L135.35 123.619C133.645 126.696 130.018 129.088 124.19 128.781L124.17 128.78L124.15 128.78L85.6215 128.494L85.8273 127.438C87.3816 119.465 88.0621 115.937 88.7606 112.315Z" stroke="#FFAB2D" stroke-width="1.73653"/>
</g>
<g style="mix-blend-mode:hard-light" filter="url(#filter2_f_1879_499)">
<path d="M86.6975 128.466L124.171 128.743C128.144 128.96 131.201 127.91 133.289 126.112C135.378 124.314 136.429 121.826 136.48 119.319C136.584 114.266 132.651 109.223 125.308 109.223C124.561 109.223 123.801 109.227 123.027 109.232C121.437 109.241 119.788 109.251 118.074 109.223L118.06 110.091L118.074 109.223C116.116 109.191 115.004 108.974 114.371 108.576C113.853 108.25 113.538 107.719 113.506 106.523C113.472 105.283 113.752 103.54 114.257 101.051C114.441 100.146 114.655 99.1425 114.889 98.0394C115.288 96.1661 115.747 94.0054 116.226 91.5527L116.234 91.5138L116.238 91.4745C116.666 87.2857 115.575 84.0312 113.567 81.8028C111.569 79.5851 108.739 78.4686 105.843 78.4037C100.049 78.2738 93.8704 82.3482 93.0312 90.424C91.5974 97.6967 90.1863 105.013 88.7803 112.302C87.8036 117.366 86.8294 122.417 85.8517 127.431L85.6515 128.458L86.6975 128.466ZM88.7606 112.315L87.9093 112.151L88.7606 112.315C90.2059 104.821 91.6554 97.3077 92.999 90.4915L93.0065 90.4532L93.0106 90.4144C93.6634 84.2074 97.4087 80.4255 101.68 79.0027C103.269 78.4736 104.936 78.274 106.551 78.4038C108.184 78.5352 109.756 79.0004 111.139 79.7924C114.485 81.7087 116.867 85.535 116.262 91.4607L116.255 91.5232L116.251 91.545C116.251 91.5453 116.251 91.5456 116.251 91.546C115.812 93.7902 115.339 96.0174 114.924 97.9697L114.914 98.0147L114.914 98.0147L114.882 98.1633C114.117 101.762 113.55 104.428 113.522 106.166L113.522 106.166C113.514 106.651 113.576 107.131 113.781 107.566C113.994 108.019 114.332 108.361 114.766 108.603C115.562 109.047 116.705 109.164 118.088 109.186C119.853 109.215 121.493 109.205 123.053 109.196C123.053 109.196 123.053 109.196 123.053 109.196L123.123 109.196C123.483 109.194 123.879 109.192 125.322 109.192H125.713C130.827 109.316 134.113 111.881 135.594 115.037C136.235 116.401 136.54 117.883 136.503 119.346V119.346C136.465 120.829 136.082 122.297 135.35 123.619L136.109 124.04L135.35 123.619C133.645 126.696 130.018 129.088 124.19 128.781L124.17 128.78L124.15 128.78L85.6215 128.494L85.8273 127.438C87.3816 119.465 88.0621 115.937 88.7606 112.315Z" stroke="#FFAB2D" stroke-width="1.73653"/>
</g>
<g style="mix-blend-mode:hard-light" filter="url(#filter3_ddi_1879_499)">
<path d="M86.6975 128.466L124.171 128.743C128.144 128.96 131.201 127.91 133.289 126.112C135.378 124.314 136.429 121.826 136.48 119.319C136.584 114.266 132.651 109.223 125.308 109.223C124.561 109.223 123.801 109.227 123.027 109.232C121.437 109.241 119.788 109.251 118.074 109.223L118.06 110.091L118.074 109.223C116.116 109.191 115.004 108.974 114.371 108.576C113.853 108.25 113.538 107.719 113.506 106.523C113.472 105.283 113.752 103.54 114.257 101.051C114.441 100.146 114.655 99.1425 114.889 98.0394C115.288 96.1661 115.747 94.0054 116.226 91.5527L116.234 91.5138L116.238 91.4745C116.666 87.2857 115.575 84.0312 113.567 81.8028C111.569 79.5851 108.739 78.4686 105.843 78.4037C100.049 78.2738 93.8704 82.3482 93.0312 90.424C91.5974 97.6967 90.1863 105.013 88.7803 112.302C87.8036 117.366 86.8294 122.417 85.8517 127.431L85.6515 128.458L86.6975 128.466ZM88.7606 112.315L87.9093 112.151L88.7606 112.315C90.2059 104.821 91.6554 97.3077 92.999 90.4915L93.0065 90.4532L93.0106 90.4144C93.6634 84.2074 97.4087 80.4255 101.68 79.0027C103.269 78.4736 104.936 78.274 106.551 78.4038C108.184 78.5352 109.756 79.0004 111.139 79.7924C114.485 81.7087 116.867 85.535 116.262 91.4607L116.255 91.5232L116.251 91.545C116.251 91.5453 116.251 91.5456 116.251 91.546C115.812 93.7902 115.339 96.0174 114.924 97.9697L114.914 98.0147L114.914 98.0147L114.882 98.1633C114.117 101.762 113.55 104.428 113.522 106.166L113.522 106.166C113.514 106.651 113.576 107.131 113.781 107.566C113.994 108.019 114.332 108.361 114.766 108.603C115.562 109.047 116.705 109.164 118.088 109.186C119.853 109.215 121.493 109.205 123.053 109.196C123.053 109.196 123.053 109.196 123.053 109.196L123.123 109.196C123.483 109.194 123.879 109.192 125.322 109.192H125.713C130.827 109.316 134.113 111.881 135.594 115.037C136.235 116.401 136.54 117.883 136.503 119.346V119.346C136.465 120.829 136.082 122.297 135.35 123.619L136.109 124.04L135.35 123.619C133.645 126.696 130.018 129.088 124.19 128.781L124.17 128.78L124.15 128.78L85.6215 128.494L85.8273 127.438C87.3816 119.465 88.0621 115.937 88.7606 112.315Z" stroke="#FF7900" stroke-width="1.73653"/>
</g>
<g filter="url(#filter4_f_1879_499)">
<path d="M92.6628 90.4013L92.6582 90.4243C91.3145 97.2413 89.8648 104.756 88.4196 112.249L87.9081 112.151L88.4196 112.249C87.7211 115.871 87.0407 119.399 85.4864 127.372L85.2006 128.838L124.148 129.127L124.16 129.127L124.171 129.128C130.113 129.44 133.876 126.996 135.653 123.788L136.109 124.04L135.653 123.788C136.414 122.415 136.811 120.892 136.85 119.355C136.888 117.838 136.572 116.303 135.909 114.889C134.369 111.607 130.959 108.971 125.717 108.844H125.322C123.879 108.844 123.482 108.847 123.121 108.848L123.051 108.849C123.051 108.849 123.051 108.849 123.051 108.849C121.491 108.858 119.854 108.867 118.094 108.839C116.705 108.817 115.646 108.696 114.936 108.3C114.559 108.089 114.274 107.8 114.095 107.418C113.921 107.048 113.862 106.626 113.869 106.171L113.869 106.171C113.897 104.467 114.458 101.827 115.233 98.1837L115.254 98.087L115.254 98.0869L115.263 98.0411C115.679 96.0894 116.153 93.8597 116.592 91.6125L92.6628 90.4013ZM92.6628 90.4013L92.6652 90.3781C93.3327 84.0312 97.174 80.1376 101.57 78.6732C103.203 78.1295 104.917 77.924 106.578 78.0576C108.259 78.1928 109.881 78.6718 111.311 79.491C114.788 81.4819 117.225 85.447 116.607 91.496L116.599 91.5741L116.592 91.6116L92.6628 90.4013ZM86.1926 127.498L86.0725 128.114L86.7 128.119L124.182 128.396C128.087 128.611 131.053 127.578 133.063 125.849C135.072 124.119 136.083 121.727 136.133 119.312C136.233 114.459 132.463 109.57 125.308 109.57C124.565 109.57 123.807 109.575 123.034 109.579C121.442 109.588 119.786 109.598 118.068 109.57C116.111 109.539 114.908 109.325 114.186 108.87C113.533 108.458 113.193 107.791 113.159 106.532C113.123 105.247 113.413 103.466 113.917 100.982C114.102 100.07 114.316 99.0642 114.551 97.96C114.949 96.0898 115.407 93.9379 115.885 91.4861L115.89 91.4628L115.892 91.4392C116.312 87.3311 115.24 84.179 113.309 82.0353C111.384 79.8979 108.649 78.814 105.835 78.7509C100.206 78.6247 94.188 82.5809 93.375 90.4755C91.9402 97.7532 90.5284 105.073 89.1216 112.366C88.1449 117.43 87.1706 122.481 86.1926 127.498Z" stroke="#FFD56A" stroke-width="1.04192"/>
</g>
<g filter="url(#filter5_f_1879_499)">
<path d="M86.363 127.531L86.2829 127.942L86.7013 127.945L124.187 128.222C128.059 128.436 130.979 127.413 132.949 125.717C134.919 124.021 135.911 121.677 135.959 119.308C136.057 114.556 132.368 109.744 125.308 109.744C124.567 109.744 123.81 109.748 123.038 109.753C121.444 109.762 119.785 109.772 118.065 109.744C116.108 109.712 114.861 109.5 114.094 109.017C113.372 108.563 113.02 107.828 112.985 106.537C112.949 105.228 113.243 103.428 113.747 100.947C113.933 100.032 114.147 99.0251 114.382 97.9203C114.779 96.0518 115.236 93.9042 115.715 91.4528L115.718 91.4373L115.72 91.4215C116.135 87.3538 115.073 84.2529 113.18 82.1515C111.291 80.0543 108.604 78.9867 105.831 78.9245C100.285 78.8002 94.3468 82.6972 93.547 90.5012C92.1116 97.7814 90.6995 105.102 89.2923 112.398C88.3156 117.462 87.3412 122.514 86.363 127.531ZM92.4879 90.3907L92.4909 90.3754L92.4925 90.3599C93.1673 83.943 97.0566 79.9937 101.515 78.5084C103.17 77.9574 104.907 77.7491 106.592 77.8845C108.297 78.0216 109.943 78.5075 111.398 79.3403C114.939 81.3685 117.404 85.403 116.78 91.5136L116.771 91.5995L116.762 91.6449C116.323 93.8938 115.849 96.1249 115.434 98.0765L115.424 98.123L115.424 98.1231L115.409 98.1922C114.629 101.859 114.07 104.487 114.043 106.174C114.036 106.613 114.093 107.006 114.252 107.344C114.415 107.69 114.672 107.954 115.02 108.148C115.688 108.52 116.705 108.643 118.097 108.665C119.855 108.694 121.49 108.684 123.05 108.675L123.12 108.675C123.482 108.673 123.878 108.671 125.322 108.671H125.669V108.67C131.003 108.781 134.491 111.46 136.066 114.815C136.741 116.254 137.063 117.815 137.023 119.359C136.984 120.923 136.58 122.474 135.805 123.872C133.991 127.147 130.161 129.617 124.162 129.301L124.154 129.301L124.147 129.301L84.9901 129.011L85.316 127.339C86.8702 119.366 87.5506 115.838 88.2491 112.216L87.9081 112.151L88.2491 112.216C89.6943 104.723 91.144 97.2082 92.4879 90.3907Z" stroke="#FF7900" stroke-width="0.694611"/>
</g>
<defs>
<filter id="filter0_f_1879_499" x="0.803848" y="0.826309" width="213.558" height="212.558" filterUnits="userSpaceOnUse" color-interpolation-filters="sRGB">
<feFlood flood-opacity="0" result="BackgroundImageFix"/>
<feBlend mode="normal" in="SourceGraphic" in2="BackgroundImageFix" result="shape"/>
<feGaussianBlur stdDeviation="32.8894" result="effect1_foregroundBlur_1879_499"/>
</filter>
<filter id="filter1_f_1879_499" x="41.2169" y="34.1449" width="139.509" height="138.883" filterUnits="userSpaceOnUse" color-interpolation-filters="sRGB">
<feFlood flood-opacity="0" result="BackgroundImageFix"/>
<feBlend mode="normal" in="SourceGraphic" in2="BackgroundImageFix" result="shape"/>
<feGaussianBlur stdDeviation="21.6762" result="effect1_foregroundBlur_1879_499"/>
</filter>
<filter id="filter2_f_1879_499" x="70.1184" y="63.0464" width="81.7062" height="81.0799" filterUnits="userSpaceOnUse" color-interpolation-filters="sRGB">
<feFlood flood-opacity="0" result="BackgroundImageFix"/>
<feBlend mode="normal" in="SourceGraphic" in2="BackgroundImageFix" result="shape"/>
<feGaussianBlur stdDeviation="7.22539" result="effect1_foregroundBlur_1879_499"/>
</filter>
<filter id="filter3_ddi_1879_499" x="65.7832" y="73.162" width="90.3767" height="89.7504" filterUnits="userSpaceOnUse" color-interpolation-filters="sRGB">
<feFlood flood-opacity="0" result="BackgroundImageFix"/>
<feColorMatrix in="SourceAlpha" type="matrix" values="0 0 0 0 0 0 0 0 0 0 0 0 0 0 0 0 0 0 127 0" result="hardAlpha"/>
<feOffset dy="6.262"/>
<feGaussianBlur stdDeviation="2.40846"/>
<feColorMatrix type="matrix" values="0 0 0 0 0.224 0 0 0 0 0.15 0 0 0 0 0 0 0 0 0.7 0"/>
<feBlend mode="multiply" in2="BackgroundImageFix" result="effect1_dropShadow_1879_499"/>
<feColorMatrix in="SourceAlpha" type="matrix" values="0 0 0 0 0 0 0 0 0 0 0 0 0 0 0 0 0 0 127 0" result="hardAlpha"/>
<feOffset dy="14.4508"/>
<feGaussianBlur stdDeviation="9.393"/>
<feColorMatrix type="matrix" values="0 0 0 0 0.56 0 0 0 0 0.44 0 0 0 0 0 0 0 0 1 0"/>
<feBlend mode="color-dodge" in2="effect1_dropShadow_1879_499" result="effect2_dropShadow_1879_499"/>
<feBlend mode="normal" in="SourceGraphic" in2="effect2_dropShadow_1879_499" result="shape"/>
<feColorMatrix in="SourceAlpha" type="matrix" values="0 0 0 0 0 0 0 0 0 0 0 0 0 0 0 0 0 0 127 0" result="hardAlpha"/>
<feOffset dx="-0.6262" dy="1.2524"/>
<feGaussianBlur stdDeviation="0.3131"/>
<feComposite in2="hardAlpha" operator="arithmetic" k2="-1" k3="1"/>
<feColorMatrix type="matrix" values="0 0 0 0 1 0 0 0 0 1 0 0 0 0 1 0 0 0 0.5 0"/>
<feBlend mode="normal" in2="shape" result="effect3_innerShadow_1879_499"/>
</filter>
<filter id="filter4_f_1879_499" x="83.6058" y="76.5338" width="54.7315" height="54.1051" filterUnits="userSpaceOnUse" color-interpolation-filters="sRGB">
<feFlood flood-opacity="0" result="BackgroundImageFix"/>
<feBlend mode="normal" in="SourceGraphic" in2="BackgroundImageFix" result="shape"/>
<feGaussianBlur stdDeviation="0.481692" result="effect1_foregroundBlur_1879_499"/>
</filter>
<filter id="filter5_f_1879_499" x="84.4883" y="77.4162" width="52.9666" height="52.3403" filterUnits="userSpaceOnUse" color-interpolation-filters="sRGB">
<feFlood flood-opacity="0" result="BackgroundImageFix"/>
<feBlend mode="normal" in="SourceGraphic" in2="BackgroundImageFix" result="shape"/>
<feGaussianBlur stdDeviation="0.0404793" result="effect1_foregroundBlur_1879_499"/>
</filter>
</defs>
</svg>
