<svg width="15" height="15" viewBox="0 0 15 15" fill="none" xmlns="http://www.w3.org/2000/svg">
<path d="M1.50732 3H13.5073V4.5H1.50732V3Z" fill="white"/>
<path d="M3.00732 0H12.0073V1.5H3.00732V0Z" fill="white"/>
<path d="M13.5 5.99268H1.5C1.10218 5.99268 0.720644 6.15071 0.43934 6.43202C0.158035 6.71332 0 7.09485 0 7.49268V13.4927C0 13.8905 0.158035 14.272 0.43934 14.5533C0.720644 14.8346 1.10218 14.9927 1.5 14.9927H13.5C13.8978 14.9927 14.2794 14.8346 14.5607 14.5533C14.842 14.272 15 13.8905 15 13.4927V7.49268C15 7.09485 14.842 6.71332 14.5607 6.43202C14.2794 6.15071 13.8978 5.99268 13.5 5.99268ZM6.225 13.4927L3.75 11.0627L4.8 10.0127L6.225 11.4377L10.2 7.46268L11.25 8.51268L6.225 13.4927Z" fill="white"/>
</svg>
