<svg width="14" height="15" viewBox="0 0 14 15" fill="none" xmlns="http://www.w3.org/2000/svg">
<path d="M11.8462 11.7692C11.8462 11.7692 8.66924 9.07692 7 9.07692V3.69231C8.56155 3.69231 11.8462 1 11.8462 1V11.7692Z" fill="white"/>
<path d="M5.79123 14.2745C5.45649 14.4761 4.86139 14.6777 4.08032 14.7449C3.85716 14.7785 3.634 14.6441 3.55961 14.4089L2 9.25007C2 9.25007 4.5 8.25012 5 10.2502C5 12.0981 5.75403 12.9978 6.01439 13.3674C6.20036 13.6026 6.20036 13.9049 6.01439 14.1401C5.94 14.2073 5.86561 14.2409 5.79123 14.2745Z" fill="white"/>
<path d="M1.92308 8.07687C2.98516 8.07687 3.84615 7.21588 3.84615 6.15379C3.84615 5.0917 2.98516 4.23071 1.92308 4.23071C0.860991 4.23071 0 5.0917 0 6.15379C0 7.21588 0.860991 8.07687 1.92308 8.07687Z" fill="white"/>
<path d="M1.76923 8.38462H5.61538V3H1.76923C1.34615 3 1 3.34615 1 3.76923V7.61538C1 8.03846 1.34615 8.38462 1.76923 8.38462Z" fill="white"/>
<path d="M13.2693 12.3077C12.952 12.3077 12.6924 11.9615 12.6924 11.5385V0.769231C12.6924 0.346154 12.952 0 13.2693 0C13.5866 0 13.8462 0.346154 13.8462 0.769231V11.5385C13.8462 11.9615 13.5866 12.3077 13.2693 12.3077Z" fill="white"/>
</svg>
