<svg width="20" height="16" viewBox="0 0 20 16" fill="none" xmlns="http://www.w3.org/2000/svg">
<path d="M0.571411 4.47696L9.70341 9.22639C9.79501 9.27402 9.89674 9.29889 9.99998 9.29889C10.1032 9.29889 10.205 9.27402 10.2966 9.22639L19.4286 4.47782V12.7278C19.4286 13.4394 19.1564 14.124 18.6677 14.6412C18.179 15.1584 17.511 15.469 16.8006 15.5092L16.6428 15.5135H3.35713C2.64558 15.5136 1.96099 15.2413 1.44378 14.7527C0.926583 14.264 0.615981 13.5959 0.575697 12.8855L0.571411 12.7278V4.47696ZM3.35713 0.0849609H16.6428C17.3544 0.0849144 18.039 0.35715 18.5562 0.845822C19.0734 1.33449 19.384 2.00256 19.4243 2.71296L19.4286 2.87068V3.02839L9.99998 7.93125L0.571411 3.02839V2.87068C0.571365 2.15913 0.8436 1.47454 1.33227 0.957335C1.82094 0.440133 2.48901 0.129531 3.19941 0.0892468L3.35713 0.0849609H16.6428H3.35713Z" fill="white"/>
</svg>
