<svg width="64" height="64" viewBox="0 0 64 64" fill="none" xmlns="http://www.w3.org/2000/svg">
<path opacity="0.9" fill-rule="evenodd" clip-rule="evenodd" d="M27.1 52C27.1 52.7957 26.8155 53.5587 26.3092 54.1213C25.8028 54.6839 25.1161 55 24.4 55H21.7C20.9839 55 20.2972 54.6839 19.7908 54.1213C19.2845 53.5587 19 52.7957 19 52V16C19 15.2044 19.2845 14.4413 19.7908 13.8787C20.2972 13.3161 20.9839 13 21.7 13H24.4C25.1161 13 25.8028 13.3161 26.3092 13.8787C26.8155 14.4413 27.1 15.2044 27.1 16V52ZM46 52C46 52.7957 45.7155 53.5587 45.2092 54.1213C44.7028 54.6839 44.0161 55 43.3 55H40.6C39.8839 55 39.1972 54.6839 38.6908 54.1213C38.1845 53.5587 37.9 52.7957 37.9 52V16C37.9 15.2044 38.1845 14.4413 38.6908 13.8787C39.1972 13.3161 39.8839 13 40.6 13H43.3C44.0161 13 44.7028 13.3161 45.2092 13.8787C45.7155 14.4413 46 15.2044 46 16V52Z" fill="white"/>
</svg>
