<svg width="24" height="24" viewBox="0 0 24 24" fill="none" xmlns="http://www.w3.org/2000/svg">
<path d="M15.5923 3.02682C14.6801 2.04198 13.406 1.49963 11.9998 1.49963C10.5861 1.49963 9.30777 2.0387 8.3998 3.01745C7.48199 4.00698 7.0348 5.35182 7.1398 6.80401C7.34793 9.66901 9.52808 11.9996 11.9998 11.9996C14.4715 11.9996 16.6479 9.66948 16.8593 6.80494C16.9657 5.36588 16.5157 4.02385 15.5923 3.02682Z" fill="#333333"/>
<path d="M20.25 22.4985H3.75002C3.53405 22.5013 3.32017 22.456 3.12394 22.3657C2.92771 22.2755 2.75407 22.1426 2.61565 21.9768C2.31096 21.6126 2.18815 21.1153 2.27909 20.6123C2.67471 18.4176 3.9094 16.574 5.85002 15.2798C7.57408 14.1309 9.75799 13.4985 12 13.4985C14.2421 13.4985 16.426 14.1313 18.15 15.2798C20.0906 16.5735 21.3253 18.4171 21.721 20.6118C21.8119 21.1148 21.6891 21.6121 21.3844 21.9763C21.246 22.1422 21.0724 22.2752 20.8762 22.3655C20.6799 22.4558 20.466 22.5013 20.25 22.4985Z" fill="#333333"/>
</svg>
