<svg width="19" height="19" viewBox="0 0 19 19" fill="none" xmlns="http://www.w3.org/2000/svg">
<path d="M13.8598 18.7987C10.1854 18.7939 6.66289 17.3321 4.0647 14.734C1.46652 12.1358 0.00476266 8.61325 0 4.93887C0 3.84089 0.436171 2.78788 1.21256 2.01149C1.98895 1.2351 3.04196 0.798931 4.13994 0.798931C4.37244 0.79716 4.60456 0.818261 4.83293 0.86193C5.05371 0.8946 5.27074 0.948859 5.48092 1.02393C5.62874 1.07579 5.76046 1.16535 5.86306 1.28373C5.96566 1.40211 6.03558 1.54523 6.06591 1.69892L7.29889 7.09884C7.33213 7.24541 7.32812 7.39798 7.28725 7.54261C7.24638 7.68724 7.16993 7.81933 7.0649 7.92683C6.9479 8.05282 6.9389 8.06182 5.83191 8.63782C6.7184 10.5826 8.27376 12.1443 10.2149 13.0388C10.7998 11.9228 10.8088 11.9138 10.9348 11.7968C11.0423 11.6917 11.1744 11.6153 11.3191 11.5744C11.4637 11.5335 11.6163 11.5295 11.7628 11.5628L17.1627 12.7958C17.3115 12.8303 17.4491 12.9021 17.5624 13.0044C17.6758 13.1068 17.7612 13.2363 17.8107 13.3807C17.8867 13.5944 17.9439 13.8142 17.9817 14.0377C18.018 14.2639 18.036 14.4927 18.0357 14.7217C18.0191 15.815 17.5707 16.8573 16.7883 17.6212C16.006 18.385 14.9532 18.8083 13.8598 18.7987V18.7987Z" fill="white"/>
</svg>
