<svg width="64" height="64" viewBox="0 0 64 64" fill="none" xmlns="http://www.w3.org/2000/svg">
<g opacity="0.9">
<path d="M60 31.9998C60.0016 32.6789 59.8275 33.3468 59.4946 33.9386C59.1617 34.5305 58.6812 35.0261 58.1 35.3773L22.08 57.4123C21.4727 57.7841 20.7772 57.9872 20.0652 58.0003C19.3532 58.0135 18.6506 57.8364 18.03 57.4873C17.4153 57.1436 16.9032 56.6423 16.5464 56.0351C16.1896 55.4279 16.001 54.7366 16 54.0323V9.96728C16.001 9.263 16.1896 8.57169 16.5464 7.96446C16.9032 7.35723 17.4153 6.85599 18.03 6.51228C18.6506 6.16315 19.3532 5.98604 20.0652 5.99922C20.7772 6.01241 21.4727 6.21542 22.08 6.58728L58.1 28.6223C58.6812 28.9735 59.1617 29.4691 59.4946 30.0609C59.8275 30.6528 60.0016 31.3207 60 31.9998Z" fill="white"/>
</g>
</svg>
