<svg width="25" height="24" viewBox="0 0 25 24" fill="none" xmlns="http://www.w3.org/2000/svg">
<path d="M12.8218 3C7.85303 3 3.82178 7.03125 3.82178 12C3.82178 16.9687 7.85303 21 12.8218 21C17.7905 21 21.8218 16.9687 21.8218 12C21.8218 7.03125 17.7905 3 12.8218 3ZM12.5405 17.25C12.3551 17.25 12.1738 17.195 12.0197 17.092C11.8655 16.989 11.7453 16.8426 11.6744 16.6713C11.6034 16.5 11.5849 16.3115 11.621 16.1296C11.6572 15.9477 11.7465 15.7807 11.8776 15.6496C12.0087 15.5185 12.1758 15.4292 12.3576 15.393C12.5395 15.3568 12.728 15.3754 12.8993 15.4464C13.0706 15.5173 13.217 15.6375 13.32 15.7917C13.423 15.9458 13.478 16.1271 13.478 16.3125C13.478 16.5611 13.3793 16.7996 13.2034 16.9754C13.0276 17.1512 12.7892 17.25 12.5405 17.25ZM14.108 12.4687C13.3482 12.9787 13.2437 13.4461 13.2437 13.875C13.2437 14.049 13.1745 14.216 13.0514 14.339C12.9284 14.4621 12.7614 14.5312 12.5874 14.5312C12.4134 14.5312 12.2464 14.4621 12.1234 14.339C12.0003 14.216 11.9312 14.049 11.9312 13.875C11.9312 12.848 12.4037 12.0314 13.3758 11.3784C14.2796 10.7719 14.7905 10.3875 14.7905 9.54234C14.7905 8.96766 14.4624 8.53125 13.7832 8.20828C13.6233 8.13234 13.2676 8.05828 12.8297 8.06344C12.2804 8.07047 11.8538 8.20172 11.5252 8.46609C10.9055 8.96484 10.853 9.50766 10.853 9.51562C10.8489 9.6018 10.8278 9.68632 10.791 9.76435C10.7541 9.84238 10.7023 9.9124 10.6384 9.9704C10.5746 10.0284 10.4999 10.0732 10.4187 10.1024C10.3375 10.1315 10.2513 10.1444 10.1651 10.1402C10.079 10.1361 9.99444 10.115 9.91641 10.0782C9.83838 10.0414 9.76836 9.98953 9.71036 9.92565C9.65236 9.86177 9.60751 9.7871 9.57837 9.70589C9.54923 9.62468 9.53637 9.53852 9.54053 9.45234C9.54568 9.33844 9.6249 8.31234 10.7016 7.44609C11.2599 6.99703 11.9701 6.76359 12.811 6.75328C13.4063 6.74625 13.9655 6.84703 14.3447 7.02609C15.4796 7.56281 16.103 8.45766 16.103 9.54234C16.103 11.1281 15.0432 11.8402 14.108 12.4687Z" fill="#FF7900"/>
</svg>
