<svg width="24" height="24" viewBox="0 0 24 24" fill="none" xmlns="http://www.w3.org/2000/svg">
<path d="M11.9998 8.25024C11.2581 8.25024 10.5331 8.47018 9.91643 8.88223C9.29975 9.29429 8.8191 9.87996 8.53527 10.5652C8.25144 11.2504 8.17718 12.0044 8.32188 12.7318C8.46657 13.4593 8.82372 14.1274 9.34817 14.6519C9.87262 15.1763 10.5408 15.5335 11.2682 15.6782C11.9957 15.8229 12.7497 15.7486 13.4349 15.4648C14.1201 15.181 14.7058 14.7003 15.1178 14.0836C15.5299 13.4669 15.7498 12.7419 15.7498 12.0002C15.7469 11.0066 15.3508 10.0545 14.6482 9.35187C13.9456 8.64925 12.9935 8.25321 11.9998 8.25024ZM20.0961 12.0002C20.0941 12.3506 20.0684 12.7005 20.0192 13.0474L22.3015 14.8343C22.4009 14.9164 22.4679 15.0311 22.4905 15.1581C22.5131 15.285 22.4898 15.4158 22.4248 15.5271L20.2658 19.2546C20.2001 19.365 20.0977 19.4486 19.9764 19.4909C19.8552 19.5332 19.723 19.5313 19.6029 19.4857L16.9194 18.4076C16.3605 18.8379 15.749 19.195 15.0997 19.4702L14.6984 22.3193C14.676 22.4469 14.6099 22.5628 14.5115 22.6471C14.4131 22.7314 14.2884 22.7789 14.1589 22.7815H9.84076C9.71356 22.779 9.59096 22.7335 9.49297 22.6524C9.39498 22.5712 9.32739 22.4593 9.30123 22.3348L8.89998 19.4857C8.24882 19.2137 7.63687 18.856 7.08029 18.4221L4.3967 19.5002C4.27674 19.5459 4.14452 19.5478 4.02329 19.5056C3.90207 19.4634 3.79959 19.3799 3.73389 19.2696L1.57482 15.5426C1.50983 15.4313 1.48655 15.3004 1.50914 15.1735C1.53172 15.0466 1.5987 14.9319 1.6981 14.8498L3.98045 13.0629C3.93177 12.7107 3.90609 12.3558 3.90357 12.0002C3.90552 11.6498 3.93121 11.3 3.98045 10.9531L1.6981 9.16618C1.5987 9.0841 1.53172 8.96935 1.50914 8.84243C1.48655 8.71551 1.50983 8.5847 1.57482 8.47337L3.73389 4.74587C3.79952 4.63552 3.90196 4.55186 4.0232 4.50959C4.14443 4.46732 4.27668 4.46916 4.3967 4.51477L7.08029 5.5929C7.6391 5.16259 8.25061 4.80548 8.89998 4.53024L9.30123 1.68118C9.32368 1.55356 9.38976 1.43771 9.48817 1.35341C9.58658 1.26911 9.71121 1.2216 9.84076 1.21899H14.1589C14.2861 1.22147 14.4087 1.26699 14.5067 1.34812C14.6047 1.42926 14.6723 1.54121 14.6984 1.66571L15.0997 4.51477C15.7516 4.78664 16.3644 5.14433 16.9217 5.57837L19.6029 4.50024C19.7229 4.45458 19.8551 4.45268 19.9763 4.49486C20.0976 4.53704 20.2001 4.62061 20.2658 4.73087L22.4248 8.45837C22.4898 8.5697 22.5131 8.70051 22.4905 8.82743C22.4679 8.95435 22.4009 9.0691 22.3015 9.15118L20.0192 10.9381C20.0679 11.2901 20.0935 11.6449 20.0961 12.0002Z" fill="#333333"/>
</svg>
