<svg width="95" height="93" viewBox="0 0 95 93" fill="none" xmlns="http://www.w3.org/2000/svg">
<path fill-rule="evenodd" clip-rule="evenodd" d="M17.0207 23.1034C12.6843 44.9378 8.46829 66.9728 4.20949 88.6591L71.0457 89.1503C98.166 90.6495 97.5213 57.6793 73.024 57.6793C68.9955 57.6793 64.6604 57.7525 60.1029 57.6793C46.1491 57.4553 49.8801 52.2088 55.3161 24.5788C58.2187 -3.64345 19.7793 -3.87557 17.0207 23.1034ZM6.35606 61.3239C8.93214 48.0631 11.5167 34.7639 13.9124 22.6982C15.1415 11.0952 22.2455 3.90876 30.4163 1.2068C33.4434 0.205832 36.624 -0.17323 39.7114 0.0732188C42.8342 0.322502 45.8582 1.2068 48.5351 2.72858C55.081 6.4498 59.5725 13.8349 58.4378 24.8665L58.4192 25.0461L58.3981 25.1543C57.6076 29.1714 56.7536 33.1557 56.0098 36.6282C54.5984 43.215 53.6092 47.8288 53.5623 50.757C53.516 53.6488 55.2011 54.4619 60.1789 54.5415C63.3053 54.5917 66.2131 54.5751 68.9958 54.559C69.6822 54.5554 70.3083 54.5511 73.0481 54.5511V54.5427C83.1335 54.5427 89.7863 59.4855 92.761 65.778C94.0048 68.4099 94.5985 71.268 94.5262 74.096C94.4532 76.9585 93.7082 79.8001 92.2776 82.3637C88.9133 88.3925 81.8443 92.8568 70.9489 92.2874L0.404297 91.7685L1.12777 88.0832C3.89819 73.9747 5.11102 67.7323 6.35606 61.3239Z" fill="#FF7900"/>
</svg>
