<svg width="133" height="170" viewBox="0 0 133 170" fill="none" xmlns="http://www.w3.org/2000/svg">
<g opacity="0.2">
<g clip-path="url(#clip0_78_833)">
<rect x="136.358" y="131.054" width="5.93846" height="86.1077" rx="2" transform="rotate(-180 136.358 131.054)" fill="white"/>
<rect x="124.481" y="120.662" width="5.93846" height="65.3231" rx="2" transform="rotate(-180 124.481 120.662)" fill="white"/>
<rect x="112.604" y="126.6" width="5.93846" height="77.2" rx="2" transform="rotate(-180 112.604 126.6)" fill="white"/>
<rect x="100.728" y="116.208" width="5.93846" height="56.4154" rx="2" transform="rotate(-180 100.728 116.208)" fill="white"/>
<rect x="88.8506" y="105.815" width="5.93846" height="35.6308" rx="2" transform="rotate(-180 88.8506 105.815)" fill="white"/>
<rect x="76.9736" y="125.115" width="5.93846" height="74.2308" rx="2" transform="rotate(-180 76.9736 125.115)" fill="white"/>
<rect x="65.0967" y="129.569" width="5.93846" height="83.1385" rx="2" transform="rotate(-180 65.0967 129.569)" fill="white"/>
<rect x="53.2197" y="117.692" width="5.93846" height="59.3846" rx="2" transform="rotate(-180 53.2197 117.692)" fill="white"/>
<rect x="41.3428" y="132.538" width="5.93846" height="89.0769" rx="2" transform="rotate(-180 41.3428 132.538)" fill="white"/>
<rect x="29.4658" y="122.146" width="5.93846" height="68.2923" rx="2" transform="rotate(-180 29.4658 122.146)" fill="white"/>
<rect x="17.5889" y="114.723" width="5.93846" height="53.4462" rx="2" transform="rotate(-180 17.5889 114.723)" fill="white"/>
<rect x="5.71216" y="108.785" width="5.93846" height="41.5692" rx="2" transform="rotate(-180 5.71216 108.785)" fill="white"/>
</g>
</g>
<defs>
<clipPath id="clip0_78_833">
<rect x="352.143" y="176" width="351.929" height="176" rx="2" transform="rotate(-180 352.143 176)" fill="white"/>
</clipPath>
</defs>
</svg>
